<svg aria-hidden="true" focusable="false" viewBox="0 0 21 20" xmlns="http://www.w3.org/2000/svg"><path d="M6.928 6.27c.974-.974 2.148-1.461 3.523-1.461s2.535.487 3.48 1.46c.975.946 1.462 2.106 1.462 3.481s-.487 2.55-1.461 3.523c-.946.946-2.106 1.418-3.48 1.418-1.376 0-2.55-.472-3.524-1.418C5.982 12.3 5.51 11.125 5.51 9.75s.472-2.535 1.418-3.48zm1.246 5.757c.63.63 1.39.946 2.277.946.888 0 1.647-.315 2.277-.946.63-.63.946-1.389.946-2.277 0-.888-.315-1.647-.945-2.277a3.104 3.104 0 00-2.278-.946c-.888 0-1.647.315-2.277.946-.63.63-.945 1.389-.945 2.277 0 .888.315 1.647.945 2.277zM16.38 3.82c.229.2.344.459.344.774s-.115.587-.344.816a.981.981 0 01-.774.344c-.315 0-.587-.115-.816-.344a1.115 1.115 0 01-.344-.816.98.98 0 01.344-.774c.23-.229.501-.343.816-.343.316 0 .573.114.774.343zm3.652 1.977c.029.773.043 2.091.043 3.953 0 1.862-.014 3.18-.043 3.953-.086 1.748-.616 3.108-1.59 4.082-.945.945-2.291 1.447-4.039 1.504-.773.057-2.09.086-3.953.086-1.862 0-3.18-.029-3.953-.086-1.747-.086-3.094-.602-4.039-1.547a4.148 4.148 0 01-.902-1.203 7.057 7.057 0 01-.516-1.332 7.744 7.744 0 01-.129-1.504C.855 12.93.826 11.612.826 9.75c0-1.862.029-3.194.086-3.996.086-1.719.602-3.05 1.547-3.996C3.404.784 4.751.254 6.499.168 7.27.139 8.588.125 10.45.125s3.18.014 3.953.043c1.748.086 3.094.616 4.04 1.59.973.945 1.503 2.291 1.59 4.039zm-2.062 9.625c.086-.23.157-.516.215-.86.057-.372.1-.802.128-1.289.03-.515.043-.93.043-1.246v-1.332-.945-.945-1.332c0-.315-.014-.716-.043-1.203a12.168 12.168 0 00-.128-1.29 4.652 4.652 0 00-.215-.902c-.344-.888-.96-1.504-1.848-1.848a4.654 4.654 0 00-.902-.214c-.344-.058-.774-.1-1.29-.13a21.227 21.227 0 00-1.202-.042H8.174c-.315 0-.73.014-1.246.043-.487.028-.917.071-1.29.129a4.68 4.68 0 00-.859.214c-.888.344-1.504.96-1.847 1.848-.086.23-.158.53-.215.902-.057.344-.1.774-.13 1.29a21.23 21.23 0 00-.042 1.203v5.155c.029.43.057.803.086 1.118a11.384 11.384 0 00.3 1.676c.373.888.989 1.504 1.848 1.848.23.085.516.157.86.214.372.058.802.1 1.289.13.515.028.916.042 1.203.042h4.597c.316 0 .717-.014 1.204-.043.515-.028.945-.071 1.289-.129a4.65 4.65 0 00.902-.215c.888-.372 1.504-.988 1.848-1.847z"/></svg>