<svg width="91" height="91" viewBox="0 0 91 91" fill="none" xmlns="http://www.w3.org/2000/svg">
<path d="M30.1478 68.536C30.1478 65.884 29.4198 63.427 28.0548 61.945C26.5728 60.333 24.5318 59.449 22.3218 59.449C20.1508 59.449 18.1488 60.255 16.6668 61.737C15.1458 63.258 14.3008 65.377 14.3008 67.717C14.3008 70.018 15.1068 72.111 16.5758 73.606C18.0578 75.114 20.1378 75.946 22.4518 75.946C24.0768 75.946 25.5718 75.569 26.7808 74.854C28.1718 74.022 29.3808 72.462 29.9138 70.798L29.9398 70.72L25.6628 70.187L25.6498 70.239C25.6368 70.265 24.9478 72.241 22.5688 72.202C20.5018 72.163 18.9548 70.915 18.8898 68.991H30.1738V68.536H30.1478ZM18.9418 65.949C19.1888 64.623 20.4108 63.18 22.3348 63.18C24.0248 63.18 25.4158 64.415 25.6628 65.949H18.9418Z" fill="white"/>
<path d="M74.5814 50.0499C74.5814 47.3979 73.8534 44.9409 72.4884 43.4589C71.0064 41.8469 68.9654 40.9629 66.7554 40.9629C64.5844 40.9629 62.5824 41.7689 61.1004 43.2509C59.5794 44.7719 58.7344 46.8909 58.7344 49.2309C58.7344 51.5319 59.5404 53.6249 61.0094 55.1199C62.4914 56.6279 64.5714 57.4599 66.8854 57.4599C68.5104 57.4599 70.0054 57.0829 71.2144 56.3679C72.6054 55.5359 73.8144 53.9759 74.3474 52.3119L74.3734 52.2339L70.0964 51.7009L70.0834 51.7529C70.0704 51.7789 69.3814 53.7549 67.0024 53.7159C64.9354 53.6769 63.3884 52.4289 63.3234 50.5049H74.6074V50.0499H74.5814ZM63.3624 47.4629C63.6094 46.1369 64.8314 44.6939 66.7554 44.6939C68.4454 44.6939 69.8364 45.9289 70.0834 47.4629H63.3624Z" fill="white"/>
<path d="M88.79 2.21V88.79H2.21V2.21H88.79ZM91 0H0V91H91V0Z" fill="white"/>
<path d="M38.3111 40.196C39.6761 40.196 40.7941 39.078 40.7941 37.713C40.7941 36.348 39.6761 35.23 38.3111 35.23C36.9461 35.23 35.8281 36.348 35.8281 37.713C35.8281 39.078 36.9461 40.196 38.3111 40.196Z" fill="white"/>
<path d="M45.2928 59.813H40.4958L37.0118 69.173L33.7618 59.865L33.7488 59.813H28.9258L34.6198 74.139L31.6948 81.055H36.2708L45.2668 59.904L45.2928 59.813Z" fill="white"/>
<path d="M16.4713 57.1091H20.9693L23.4523 47.9311L25.9353 57.0441L25.9483 57.1091H30.4203L35.3083 41.3791L35.3473 41.2751H30.5633L28.1583 50.9341L25.6363 41.2751H21.2813L18.7593 50.9341L16.3673 41.3401L16.3543 41.2751H11.5703L16.4453 57.0441L16.4713 57.1091Z" fill="white"/>
<path d="M40.5864 41.2878H36.0234V57.1088H40.5864V41.2878Z" fill="white"/>
<path d="M61.8791 75.8811C63.1499 75.8811 64.1801 74.8509 64.1801 73.5801C64.1801 72.3092 63.1499 71.2791 61.8791 71.2791C60.6083 71.2791 59.5781 72.3092 59.5781 73.5801C59.5781 74.8509 60.6083 75.8811 61.8791 75.8811Z" fill="white"/>
<path d="M48.8399 57.486C50.7379 57.486 52.3888 56.849 53.2988 55.77V57.096H57.7448V34.801H53.2988V42.874C52.4798 41.951 50.8548 41.002 48.6058 41.002C46.6558 41.002 44.8489 41.847 43.5359 43.394C42.2359 44.928 41.5079 46.995 41.5079 49.218C41.4949 53.859 44.7189 57.486 48.8399 57.486ZM49.6588 45.253C51.8298 45.253 53.3508 46.904 53.3508 49.27C53.3508 51.558 51.7779 53.287 49.6849 53.287C47.5399 53.287 45.9928 51.597 45.9928 49.27C45.9928 46.943 47.5399 45.253 49.6588 45.253Z" fill="white"/>
<path d="M59.8392 68.536C59.8392 65.884 59.1112 63.427 57.7462 61.945C56.2642 60.333 54.2232 59.449 52.0132 59.449C49.8422 59.449 47.8402 60.255 46.3582 61.737C44.8372 63.258 43.9922 65.377 43.9922 67.717C43.9922 70.018 44.7982 72.111 46.2672 73.606C47.7492 75.114 49.8292 75.946 52.1432 75.946C53.7682 75.946 55.2632 75.569 56.4722 74.854C57.8632 74.022 59.0722 72.462 59.6052 70.798L59.6312 70.72L55.3542 70.187L55.3412 70.239C55.3282 70.265 54.6392 72.241 52.2602 72.202C50.1932 72.163 48.6462 70.915 48.5812 68.991H59.8652V68.536H59.8392ZM48.6202 65.949C48.8672 64.623 50.0892 63.18 52.0132 63.18C53.7032 63.18 55.0942 64.415 55.3412 65.949H48.6202Z" fill="white"/>
</svg>
